FFmpeg version SVN-r25716, Copyright (c) 2000-2010 the FFmpeg developers  built on Nov 10 2010 12:23:18 with gcc 4.1.2 20080704 (Red Hat 4.1.2-48)  configuration: --enable-libmp3lame --enable-shared --disable-mmx --arch=x86_64  libavutil     50.33. 0 / 50.33. 0  libavcore      0.12. 1 /  0.12. 1  libavcodec    52.94. 4 / 52.94. 4  libavformat   52.84. 0 / 52.84. 0  libavdevice   52. 2. 2 / 52. 2. 2  libavfilter    1.59. 0 /  1.59. 0  libswscale     0.12. 0 /  0.12. 0Input #0, mov,mp4,m4a,3gp,3g2,mj2, from '/RAID10/data/converted_video_files/11821.mov':  Duration: 00:00:04.66, bitrate: 1248 kb/s    Stream #0.0(eng): Video: svq1, yuv410p, 512x311, 1245 kb/s, 29.57 fps, 60 tbr, 60 tbn, 60 tbc[buffer @ 0x1f3ea870] w:512 h:311 pixfmt:yuv410p[ffsink @ 0x1f3ed0e0] auto-inserting filter 'auto-inserted scaler 0' between the filter 'src' and the filter 'out'[scale @ 0x1f3ed400] w:512 h:311 fmt:yuv410p -> w:512 h:311 fmt:yuv420p flags:0x4Output #0, flv, to '/RAID10/data/converted_video_files/11821.flv':  Metadata:    encoder         : Lavf52.84.0    Stream #0.0(eng): Video: flv, yuv420p, 512x311, q=2-31, 600 kb/s, 1k tbn, 24 tbcStream mapping:  Stream #0.0 -> #0.0Press [q] to stop encodingframe=   66 fps=  0 q=16.6 size=     373kB time=2.75 bitrate=1110.8kbits/s dup=0 drop=16    frame=  105 fps= 96 q=15.3 size=     503kB time=4.38 bitrate= 942.7kbits/s dup=0 drop=26    frame=  111 fps= 81 q=10.9 Lsize=     528kB time=4.62 bitrate= 934.5kbits/s dup=0 drop=27    video:526kB audio:0kB global headers:0kB muxing overhead 0.368943%